<svg width="119" height="33" viewBox="0 0 119 33" fill="none" xmlns="http://www.w3.org/2000/svg">
<path d="M7.008 26.784C5.49333 26.784 4.26667 26.4 3.328 25.632C2.41067 24.8853 1.73867 23.9147 1.312 22.72C0.906667 21.5253 0.704 20.2773 0.704 18.976C0.704 17.2907 0.96 15.5947 1.472 13.888C1.984 12.1813 2.67733 10.56 3.552 9.024C4.448 7.46667 5.46133 6.09067 6.592 4.896C7.72267 3.68 8.90667 2.73067 10.144 2.048C11.4027 1.344 12.64 0.991999 13.856 0.991999C14.7307 0.991999 15.4347 1.20533 15.968 1.632C16.5227 2.03733 16.8 2.74133 16.8 3.744C16.8 4.36267 16.6933 5.06667 16.48 5.856C16.2667 6.624 15.9787 7.37067 15.616 8.096C15.2533 8.8 14.848 9.38667 14.4 9.856C13.9733 10.3253 13.536 10.56 13.088 10.56C12.9173 10.56 12.736 10.5067 12.544 10.4C12.3733 10.2933 12.224 10.1013 12.096 9.824C12.416 9.46133 12.768 9.01333 13.152 8.48C13.5573 7.92533 13.9413 7.34933 14.304 6.752C14.6667 6.13333 14.9547 5.536 15.168 4.96C15.4027 4.36267 15.52 3.84 15.52 3.392C15.52 2.96533 15.392 2.624 15.136 2.368C14.9013 2.09067 14.5067 1.952 13.952 1.952C13.0347 1.952 12.0747 2.32533 11.072 3.072C10.0907 3.81867 9.13067 4.82133 8.192 6.08C7.27467 7.31733 6.44267 8.704 5.696 10.24C4.94933 11.776 4.352 13.344 3.904 14.944C3.47733 16.544 3.264 18.0693 3.264 19.52C3.264 20.5653 3.41333 21.568 3.712 22.528C4.01067 23.4667 4.49067 24.224 5.152 24.8C5.83467 25.3973 6.70933 25.696 7.776 25.696C8.90667 25.696 10.0267 25.376 11.136 24.736C12.2667 24.096 13.3013 23.2533 14.24 22.208C15.1787 21.1627 15.9253 20.032 16.48 18.816L16.928 19.136C16.224 20.5227 15.3707 21.8027 14.368 22.976C13.3653 24.128 12.2453 25.0453 11.008 25.728C9.77067 26.432 8.43733 26.784 7.008 26.784ZM21.3485 24.832C20.6232 24.832 20.0472 24.64 19.6205 24.256C19.2152 23.872 19.0125 23.3707 19.0125 22.752C19.0125 22.112 19.1618 21.44 19.4605 20.736C19.7592 20.032 20.0472 19.3387 20.3245 18.656C20.6232 17.952 20.7725 17.3227 20.7725 16.768C20.7725 16.0853 20.5698 15.584 20.1645 15.264C19.7805 14.9227 19.3858 14.6133 18.9805 14.336C18.4898 15.5947 17.9778 16.7893 17.4445 17.92C16.9112 19.0507 16.4738 19.904 16.1325 20.48L15.8445 19.936C16.1432 19.3813 16.5272 18.5707 16.9965 17.504C17.4872 16.4373 17.9672 15.2213 18.4365 13.856C18.2232 13.6427 18.1165 13.3867 18.1165 13.088C18.1165 12.448 18.2978 11.9253 18.6605 11.52C19.0232 11.1147 19.2898 10.912 19.4605 10.912C19.6952 10.912 19.8232 11.0187 19.8445 11.232C19.8872 11.424 19.9085 11.5733 19.9085 11.68C19.9085 11.7867 19.8445 12 19.7165 12.32C19.6098 12.6187 19.5565 12.8 19.5565 12.864C19.5565 13.1627 19.7165 13.44 20.0365 13.696C20.3778 13.9307 20.7618 14.208 21.1885 14.528C21.6152 14.8267 21.9885 15.2 22.3085 15.648C22.6498 16.0747 22.8205 16.6293 22.8205 17.312C22.8205 17.952 22.6818 18.6027 22.4045 19.264C22.1485 19.9253 21.8818 20.5547 21.6045 21.152C21.3485 21.7493 21.2205 22.272 21.2205 22.72C21.2205 23.104 21.3165 23.36 21.5085 23.488C21.7005 23.616 21.9245 23.68 22.1805 23.68C22.6925 23.68 23.2152 23.52 23.7485 23.2C24.3032 22.88 24.8365 22.4747 25.3485 21.984C25.8605 21.4933 26.3192 20.9813 26.7245 20.448C27.1298 19.8933 27.4285 19.3813 27.6205 18.912L28.0365 19.232C27.6312 20.128 27.0765 21.0133 26.3725 21.888C25.6685 22.7413 24.8792 23.4453 24.0045 24C23.1512 24.5547 22.2658 24.832 21.3485 24.832ZM28.4735 25.504C27.8122 25.504 27.2575 25.28 26.8095 24.832C26.3402 24.4053 26.1055 23.744 26.1055 22.848C26.1055 22.08 26.2762 21.2587 26.6175 20.384C26.9588 19.488 27.4282 18.6133 28.0255 17.76C28.6228 16.8853 29.2948 16.096 30.0415 15.392C30.8095 14.6667 31.6095 14.0907 32.4415 13.664C33.2948 13.2373 34.1375 13.024 34.9695 13.024C35.8015 13.024 36.4948 13.248 37.0495 13.696C37.6042 14.1227 37.8815 14.6987 37.8815 15.424C37.8815 15.9573 37.7322 16.32 37.4335 16.512C37.1562 16.704 36.7828 16.8 36.3135 16.8C36.3562 16.6293 36.3882 16.448 36.4095 16.256C36.4522 16.0427 36.4735 15.8507 36.4735 15.68C36.4735 15.1893 36.3562 14.7733 36.1215 14.432C35.8868 14.0693 35.4815 13.888 34.9055 13.888C34.3082 13.888 33.7002 14.1013 33.0815 14.528C32.4628 14.9333 31.8655 15.488 31.2895 16.192C30.7135 16.8747 30.2015 17.6213 29.7535 18.432C29.3055 19.2427 28.9535 20.0427 28.6975 20.832C28.4415 21.6213 28.3135 22.3253 28.3135 22.944C28.3135 23.776 28.6015 24.192 29.1775 24.192C29.6682 24.192 30.2015 23.968 30.7775 23.52C31.3535 23.0507 31.9402 22.464 32.5375 21.76C33.1562 21.0347 33.7428 20.288 34.2975 19.52C34.8522 18.752 35.3428 18.048 35.7695 17.408C35.8548 17.28 35.9082 17.216 35.9295 17.216C36.0575 17.2373 36.2175 17.28 36.4095 17.344C36.6228 17.408 36.8042 17.4933 36.9535 17.6C37.1028 17.7067 37.1775 17.8453 37.1775 18.016C37.1775 18.208 37.0815 18.4747 36.8895 18.816C36.6975 19.136 36.4842 19.5093 36.2495 19.936C36.0148 20.3627 35.8015 20.8 35.6095 21.248C35.4175 21.6747 35.3215 22.08 35.3215 22.464C35.3215 22.784 35.4068 23.104 35.5775 23.424C35.7482 23.7227 36.0255 23.872 36.4095 23.872C36.9855 23.872 37.7428 23.456 38.6815 22.624C39.6202 21.7707 40.5695 20.5013 41.5295 18.816L41.8495 19.136C41.4015 20.288 40.8255 21.3013 40.1215 22.176C39.4175 23.0507 38.6602 23.7333 37.8495 24.224C37.0602 24.7147 36.2815 24.96 35.5135 24.96C34.7242 24.96 34.1375 24.7253 33.7535 24.256C33.3908 23.7867 33.2095 23.2747 33.2095 22.72C33.2095 22.592 33.2202 22.4533 33.2415 22.304C33.2628 22.1333 33.2842 21.9627 33.3055 21.792C32.3882 23.0293 31.5455 23.9573 30.7775 24.576C30.0308 25.1947 29.2628 25.504 28.4735 25.504ZM40.459 32.96C40.2457 32.96 40.0003 32.8853 39.723 32.736C39.4457 32.608 39.211 32.3413 39.019 31.936C38.8057 31.5307 38.699 30.9333 38.699 30.144C38.699 29.2053 38.859 27.9787 39.179 26.464C39.499 24.9707 39.9363 23.3173 40.491 21.504C41.0457 19.6907 41.6857 17.8347 42.411 15.936C43.1363 14.016 43.915 12.1707 44.747 10.4C45.6003 8.608 46.4643 7.008 47.339 5.6C48.235 4.17067 49.1097 3.04 49.963 2.208C50.8163 1.376 51.627 0.959999 52.395 0.959999C52.843 0.959999 53.131 1.09867 53.259 1.376C53.4083 1.65333 53.483 1.984 53.483 2.368C53.483 3.28533 53.227 4.288 52.715 5.376C52.2243 6.464 51.563 7.56267 50.731 8.672C49.899 9.76 48.9817 10.8053 47.979 11.808C46.9763 12.7893 45.963 13.632 44.939 14.336C44.8323 14.592 44.7257 14.8587 44.619 15.136C44.5337 15.392 44.4377 15.6587 44.331 15.936C44.5657 15.9787 44.747 16.1067 44.875 16.32C45.0243 16.512 45.1097 16.7253 45.131 16.96C45.2803 17.92 45.4403 18.784 45.611 19.552C45.7817 20.2987 46.0377 20.8853 46.379 21.312C46.7417 21.7387 47.2537 21.952 47.915 21.952C48.6617 21.952 49.291 21.6853 49.803 21.152C50.315 20.5973 50.8697 19.8187 51.467 18.816L51.947 19.136C51.4137 20.416 50.731 21.344 49.899 21.92C49.0883 22.496 48.3737 22.784 47.755 22.784C47.371 22.784 46.9657 22.688 46.539 22.496C46.1337 22.304 45.7497 22.048 45.387 21.728C45.387 23.072 45.2377 24.4053 44.939 25.728C44.6617 27.0507 44.2883 28.256 43.819 29.344C43.3497 30.432 42.827 31.3067 42.251 31.968C41.675 32.6293 41.0777 32.96 40.459 32.96ZM41.291 31.424C41.5257 31.424 41.7923 31.2107 42.091 30.784C42.3897 30.3573 42.6777 29.792 42.955 29.088C43.2537 28.4053 43.5203 27.648 43.755 26.816C43.9897 25.984 44.1817 25.152 44.331 24.32C44.4803 23.488 44.555 22.7413 44.555 22.08C44.555 21.4187 44.4697 20.8213 44.299 20.288C44.1283 19.7333 43.851 19.0827 43.467 18.336C42.9337 19.936 42.4537 21.4827 42.027 22.976C41.6003 24.4693 41.2697 25.8133 41.035 27.008C40.8003 28.2027 40.683 29.1627 40.683 29.888C40.683 30.912 40.8857 31.424 41.291 31.424ZM45.451 13.024C46.8377 11.744 48.0323 10.464 49.035 9.184C50.059 7.88267 50.8483 6.73067 51.403 5.728C51.9577 4.704 52.235 3.97867 52.235 3.552C52.235 3.25333 52.0857 3.104 51.787 3.104C51.2323 3.104 50.603 3.56267 49.899 4.48C49.195 5.376 48.459 6.57067 47.691 8.064C46.923 9.55733 46.1763 11.2107 45.451 13.024ZM53.5638 25.472C52.6464 25.472 51.9424 25.2053 51.4518 24.672C50.9611 24.1387 50.7157 23.3493 50.7157 22.304C50.7157 21.3653 50.8864 20.2133 51.2278 18.848C51.5904 17.4613 52.0384 16.0427 52.5718 14.592C52.3584 14.5493 52.1558 14.5173 51.9638 14.496C51.7718 14.4533 51.5904 14.4 51.4198 14.336V13.76C51.5904 13.7813 51.7931 13.8027 52.0278 13.824C52.2624 13.8453 52.5291 13.8667 52.8278 13.888C53.2758 12.736 53.7558 11.6267 54.2678 10.56C54.7798 9.472 55.2811 8.512 55.7718 7.68C56.2838 6.82667 56.7638 6.15467 57.2118 5.664C57.6811 5.152 58.0758 4.896 58.3958 4.896C58.5664 4.896 58.7158 4.96 58.8438 5.088C58.9931 5.19467 59.0677 5.36533 59.0677 5.6C59.0677 5.96267 58.8438 6.56 58.3958 7.392C57.9478 8.20267 57.3931 9.17333 56.7318 10.304C56.0704 11.4347 55.4304 12.6613 54.8118 13.984C55.0038 13.984 55.1958 13.984 55.3878 13.984C55.6011 13.984 55.8038 13.984 55.9958 13.984C56.6998 13.984 57.4358 13.9733 58.2038 13.952C58.9931 13.9307 59.7824 13.8773 60.5718 13.792V14.368C59.3984 14.496 58.3424 14.592 57.4038 14.656C56.4864 14.72 55.6651 14.752 54.9398 14.752C54.8544 14.752 54.7691 14.752 54.6838 14.752C54.6198 14.752 54.5451 14.752 54.4598 14.752C53.9691 15.8827 53.5531 17.0453 53.2118 18.24C52.8704 19.4347 52.6998 20.5973 52.6998 21.728C52.6998 22.6453 52.8384 23.3067 53.1158 23.712C53.3931 24.096 53.8518 24.288 54.4918 24.288C55.6011 24.288 56.6891 23.7973 57.7558 22.816C58.8224 21.8347 59.7611 20.5013 60.5718 18.816L60.9878 19.136C60.4758 20.3307 59.8251 21.408 59.0358 22.368C58.2678 23.328 57.4144 24.0853 56.4758 24.64C55.5371 25.1947 54.5664 25.472 53.5638 25.472ZM63.3288 25.632C62.3261 25.632 61.5261 25.408 60.9288 24.96C60.3528 24.5333 59.9474 24 59.7127 23.36C59.4567 22.72 59.3287 22.08 59.3287 21.44C59.3287 20.8 59.4141 20.3093 59.5847 19.968C59.7554 19.6267 59.9581 19.3707 60.1928 19.2C60.4488 19.0293 60.6834 18.9013 60.8968 18.816C61.1314 18.7307 61.2914 18.6453 61.3768 18.56C62.0168 17.856 62.6034 17.12 63.1368 16.352C63.6701 15.584 64.1394 14.7733 64.5448 13.92V13.536C64.5448 12.7467 64.6728 12.192 64.9288 11.872C65.2061 11.5307 65.4941 11.36 65.7928 11.36C65.9634 11.36 66.0914 11.4027 66.1768 11.488C66.2621 11.5733 66.3048 11.6693 66.3048 11.776C66.3048 11.8827 66.2728 12.0533 66.2088 12.288C66.1448 12.5227 66.1128 12.8213 66.1128 13.184C66.1128 13.888 66.2514 14.656 66.5288 15.488C66.8061 16.2987 67.0834 17.1627 67.3608 18.08C67.6381 18.976 67.7768 19.9147 67.7768 20.896C67.7768 21.1733 67.7554 21.4507 67.7128 21.728C67.6914 21.984 67.6488 22.2293 67.5848 22.464C68.3314 22.336 69.0354 22.0053 69.6968 21.472C70.3581 20.9173 70.9981 20.0427 71.6168 18.848L71.9048 19.168C71.4994 20.3413 70.8914 21.2373 70.0808 21.856C69.2701 22.4533 68.3848 22.8267 67.4248 22.976C67.0834 23.8933 66.5394 24.5653 65.7928 24.992C65.0674 25.4187 64.2461 25.632 63.3288 25.632ZM63.3928 24.512C63.6488 24.512 63.9901 24.4267 64.4168 24.256C64.8434 24.0853 65.1741 23.648 65.4088 22.944C64.5128 22.7733 63.7128 22.4213 63.0088 21.888C62.3261 21.3547 61.8141 20.8213 61.4728 20.288C61.0034 20.3093 60.7688 20.6827 60.7688 21.408C60.7688 22.176 60.9928 22.8907 61.4408 23.552C61.9101 24.192 62.5608 24.512 63.3928 24.512ZM65.5688 22.432C65.6114 22.2187 65.6434 21.9947 65.6648 21.76C65.6861 21.5253 65.6968 21.248 65.6968 20.928C65.6968 19.9253 65.5688 18.9333 65.3128 17.952C65.0781 16.9493 64.8754 16.0107 64.7048 15.136C64.2141 15.9467 63.6914 16.7253 63.1368 17.472C62.6034 18.1973 62.0914 18.8053 61.6008 19.296C61.9208 19.9787 62.4114 20.6187 63.0728 21.216C63.7554 21.8133 64.5874 22.2187 65.5688 22.432ZM87.128 24.992C86.3813 24.992 85.8373 24.7573 85.496 24.288C85.1547 23.84 84.984 23.296 84.984 22.656C84.984 22.1227 85.0587 21.5893 85.208 21.056C85.3787 20.5227 85.5387 20 85.688 19.488C85.8587 18.976 85.944 18.5173 85.944 18.112C85.944 17.6853 85.848 17.3867 85.656 17.216C85.464 17.0453 85.2507 16.96 85.016 16.96C84.4827 16.96 83.896 17.376 83.256 18.208C82.6373 19.04 81.8267 20.2133 80.824 21.728C80.4827 22.24 80.1947 22.7627 79.96 23.296C79.7253 23.808 79.5013 24.2773 79.288 24.704C79.1173 24.704 78.904 24.6827 78.648 24.64C78.392 24.5973 78.1573 24.5227 77.944 24.416C77.752 24.3307 77.656 24.2133 77.656 24.064C77.656 23.9147 77.752 23.5627 77.944 23.008C78.1573 22.432 78.392 21.7707 78.648 21.024C78.9253 20.256 79.16 19.488 79.352 18.72C79.5653 17.9307 79.672 17.2587 79.672 16.704C79.672 16.3413 79.608 16.0533 79.48 15.84C79.3733 15.6053 79.1707 15.488 78.872 15.488C78.4027 15.488 77.8373 15.776 77.176 16.352C76.5147 16.9067 75.832 17.6427 75.128 18.56C74.424 19.4773 73.752 20.4907 73.112 21.6C72.4933 22.688 71.992 23.776 71.608 24.864C71.416 24.864 71.1813 24.832 70.904 24.768C70.6267 24.704 70.392 24.6187 70.2 24.512C69.9867 24.4053 69.88 24.2987 69.88 24.192C69.88 24.064 69.9973 23.6907 70.232 23.072C70.4453 22.432 70.7013 21.6747 71 20.8C71.2773 19.904 71.5227 18.9973 71.736 18.08C71.9707 17.1627 72.088 16.352 72.088 15.648C72.216 15.4987 72.4187 15.3493 72.696 15.2C72.9733 15.0507 73.2613 14.976 73.56 14.976C73.8587 14.976 74.072 15.0507 74.2 15.2C74.3493 15.3493 74.424 15.552 74.424 15.808C74.424 16.0853 74.3387 16.5653 74.168 17.248C74.0187 17.9093 73.8267 18.6453 73.592 19.456C74.0187 18.7733 74.4987 18.08 75.032 17.376C75.5867 16.6507 76.1627 15.9893 76.76 15.392C77.3573 14.7947 77.9547 14.3147 78.552 13.952C79.1707 13.568 79.768 13.376 80.344 13.376C81.0053 13.376 81.4533 13.6213 81.688 14.112C81.944 14.5813 82.072 15.1467 82.072 15.808C82.072 16.3413 82.008 16.9067 81.88 17.504C81.7733 18.08 81.6453 18.624 81.496 19.136C81.3467 19.6267 81.208 20.0213 81.08 20.32C81.528 19.5093 82.0187 18.7307 82.552 17.984C83.1067 17.216 83.704 16.5973 84.344 16.128C84.984 15.6373 85.6667 15.392 86.392 15.392C87.0747 15.392 87.544 15.5947 87.8 16C88.0773 16.4053 88.216 16.8853 88.216 17.44C88.216 17.9947 88.12 18.6027 87.928 19.264C87.736 19.9253 87.5333 20.5653 87.32 21.184C87.128 21.8027 87.032 22.336 87.032 22.784C87.032 23.0613 87.096 23.3173 87.224 23.552C87.3733 23.7653 87.6293 23.872 87.992 23.872C88.5893 23.872 89.144 23.6053 89.656 23.072C90.1893 22.5173 90.68 21.856 91.128 21.088C91.576 20.2987 91.96 19.5413 92.28 18.816L92.664 19.264C92.3227 20.16 91.8853 21.056 91.352 21.952C90.8187 22.8267 90.1893 23.552 89.464 24.128C88.76 24.704 87.9813 24.992 87.128 24.992ZM95.1435 25.408C93.8422 25.408 92.8608 25.0453 92.1995 24.32C91.5595 23.616 91.2395 22.7413 91.2395 21.696C91.2395 20.736 91.4742 19.7227 91.9435 18.656C92.4342 17.5893 93.0742 16.5867 93.8635 15.648C94.6742 14.7093 95.5595 13.952 96.5195 13.376C97.4795 12.7787 98.4288 12.48 99.3675 12.48C99.8582 12.48 100.306 12.608 100.712 12.864C101.138 13.12 101.352 13.6427 101.352 14.432C101.352 15.2427 101.106 16.0107 100.616 16.736C100.146 17.44 99.5168 18.0693 98.7275 18.624C97.9595 19.1787 97.1062 19.6373 96.1675 20C95.2502 20.3413 94.3328 20.5547 93.4155 20.64C93.3728 20.8533 93.3408 21.056 93.3195 21.248C93.2982 21.44 93.2875 21.6213 93.2875 21.792C93.2875 22.112 93.3195 22.432 93.3835 22.752C93.4688 23.072 93.6075 23.3707 93.7995 23.648C93.9915 23.904 94.2475 24.1067 94.5675 24.256C94.9088 24.4053 95.3248 24.48 95.8155 24.48C96.7328 24.48 97.6395 24.224 98.5355 23.712C99.4315 23.1787 100.264 22.4853 101.032 21.632C101.8 20.7787 102.45 19.84 102.984 18.816L103.368 19.104C102.792 20.384 102.056 21.4933 101.16 22.432C100.285 23.3707 99.3248 24.096 98.2795 24.608C97.2555 25.1413 96.2102 25.408 95.1435 25.408ZM93.5755 20.032C94.1515 19.84 94.8022 19.5627 95.5275 19.2C96.2528 18.816 96.9462 18.368 97.6075 17.856C98.2902 17.344 98.8448 16.7787 99.2715 16.16C99.7195 15.5413 99.9435 14.8907 99.9435 14.208C99.9435 13.9733 99.9008 13.792 99.8155 13.664C99.7302 13.536 99.5488 13.472 99.2715 13.472C98.7595 13.472 98.2155 13.6747 97.6395 14.08C97.0635 14.464 96.5088 14.976 95.9755 15.616C95.4422 16.256 94.9622 16.96 94.5355 17.728C94.1088 18.496 93.7888 19.264 93.5755 20.032ZM112.68 24.64C111.933 24.64 111.368 24.448 110.984 24.064C110.621 23.68 110.44 23.1893 110.44 22.592C110.44 22.144 110.514 21.6747 110.664 21.184C110.834 20.6933 110.994 20.192 111.144 19.68C111.293 19.1467 111.368 18.6347 111.368 18.144C111.368 17.5467 111.24 17.1413 110.984 16.928C110.749 16.6933 110.45 16.576 110.088 16.576C109.426 16.576 108.754 16.8533 108.072 17.408C107.389 17.9413 106.728 18.6347 106.088 19.488C105.448 20.32 104.85 21.184 104.296 22.08C103.741 22.976 103.25 23.776 102.824 24.48C102.482 24.48 102.162 24.416 101.864 24.288C101.544 24.1813 101.298 24.0107 101.128 23.776C101.128 23.6693 101.245 23.3387 101.48 22.784C101.693 22.2293 101.949 21.5467 102.248 20.736C102.546 19.9253 102.813 19.0933 103.048 18.24C103.282 17.3867 103.4 16.608 103.4 15.904C103.528 15.7547 103.73 15.6053 104.008 15.456C104.285 15.3067 104.573 15.232 104.872 15.232C105.448 15.232 105.736 15.5093 105.736 16.064C105.736 16.4053 105.64 16.9813 105.448 17.792C105.256 18.5813 105.01 19.4133 104.712 20.288C105.288 19.4133 105.928 18.5493 106.632 17.696C107.357 16.8213 108.125 16.096 108.936 15.52C109.746 14.944 110.557 14.656 111.368 14.656C112.2 14.656 112.797 14.9547 113.16 15.552C113.544 16.1493 113.736 16.8107 113.736 17.536C113.736 18.1973 113.629 18.816 113.416 19.392C113.202 19.9467 112.978 20.4907 112.744 21.024C112.53 21.536 112.424 22.0587 112.424 22.592C112.424 23.04 112.509 23.36 112.68 23.552C112.872 23.7227 113.106 23.808 113.384 23.808C113.917 23.808 114.45 23.5627 114.984 23.072C115.517 22.56 116.029 21.92 116.52 21.152C117.032 20.384 117.48 19.6053 117.864 18.816L118.216 19.232C117.768 20.2773 117.266 21.2053 116.712 22.016C116.157 22.8267 115.549 23.4667 114.888 23.936C114.226 24.4053 113.49 24.64 112.68 24.64Z" fill="black"/>
</svg>
